<?xml version="1.0" encoding="UTF-8" standalone="no"?>
<!-- Created with Inkscape (http://www.inkscape.org/) -->

<svg
   xmlns:dc="http://purl.org/dc/elements/1.1/"
   xmlns:cc="http://creativecommons.org/ns#"
   xmlns:rdf="http://www.w3.org/1999/02/22-rdf-syntax-ns#"
   xmlns:svg="http://www.w3.org/2000/svg"
   xmlns="http://www.w3.org/2000/svg"
   xmlns:xlink="http://www.w3.org/1999/xlink"
   xmlns:sodipodi="http://sodipodi.sourceforge.net/DTD/sodipodi-0.dtd"
   xmlns:inkscape="http://www.inkscape.org/namespaces/inkscape"
   width="1024"
   height="748"
   viewBox="0 0 270.93333 197.90834"
   version="1.1"
   id="svg8"
   inkscape:version="0.92.1 r15371"
   sodipodi:docname="front_image.svg">
  <defs
     id="defs2">
    <linearGradient
       inkscape:collect="always"
       id="linearGradient4519">
      <stop
         style="stop-color:#2a4d82;stop-opacity:1"
         offset="0"
         id="stop4515" />
      <stop
         style="stop-color:#25256f;stop-opacity:0.96862745"
         offset="1"
         id="stop4517" />
    </linearGradient>
    <radialGradient
       inkscape:collect="always"
       xlink:href="#linearGradient4519"
       id="radialGradient4521"
       cx="135.46666"
       cy="198.04582"
       fx="135.46666"
       fy="198.04582"
       r="135.46666"
       gradientTransform="matrix(0.89117534,0.0037009,-0.00279018,0.67187501,15.294697,64.482435)"
       gradientUnits="userSpaceOnUse" />
  </defs>
  <sodipodi:namedview
     id="base"
     pagecolor="#ffffff"
     bordercolor="#666666"
     borderopacity="1.0"
     inkscape:pageopacity="0.0"
     inkscape:pageshadow="2"
     inkscape:zoom="0.7"
     inkscape:cx="353.52732"
     inkscape:cy="357.1873"
     inkscape:document-units="mm"
     inkscape:current-layer="layer1"
     showgrid="false"
     units="px"
     inkscape:snap-page="true"
     inkscape:window-width="1680"
     inkscape:window-height="975"
     inkscape:window-x="-9"
     inkscape:window-y="-9"
     inkscape:window-maximized="1"
     inkscape:snap-global="false"
     showguides="true"
     inkscape:guide-bbox="true">
    <sodipodi:guide
       position="135.50447,213.17857"
       orientation="1,0"
       id="guide4572"
       inkscape:locked="false" />
  </sodipodi:namedview>
  <metadata
     id="metadata5">
    <rdf:RDF>
      <cc:Work
         rdf:about="">
        <dc:format>image/svg+xml</dc:format>
        <dc:type
           rdf:resource="http://purl.org/dc/dcmitype/StillImage" />
        <dc:title />
      </cc:Work>
    </rdf:RDF>
  </metadata>
  <g
     inkscape:label="Layer 1"
     inkscape:groupmode="layer"
     id="layer1"
     transform="translate(0,-99.09165)">
    <rect
       style="fill:url(#radialGradient4521);fill-opacity:1;stroke:none;stroke-width:2;stroke-miterlimit:4;stroke-dasharray:none;stroke-opacity:1"
       id="rect4485"
       width="270.93332"
       height="197.90833"
       x="0"
       y="99.09166" />
    <rect
       y="206.13811"
       x="118.68452"
       height="88.216026"
       width="149.50285"
       id="rect4740"
       style="fill:#c6f8ff;fill-opacity:0.072;stroke:none;stroke-width:3.19788122;stroke-miterlimit:4;stroke-dasharray:none;stroke-opacity:1" />
    <rect
       y="149.34981"
       x="41.199409"
       height="53.156136"
       width="81.264877"
       id="rect4742"
       style="fill:#c6f8ff;fill-opacity:0.072;stroke:none;stroke-width:1.83017242;stroke-miterlimit:4;stroke-dasharray:none;stroke-opacity:1" />
    <rect
       y="135.62878"
       x="29.482149"
       height="47.222427"
       width="72.193451"
       id="rect4734"
       style="fill:#c6f8ff;fill-opacity:0.072;stroke:none;stroke-width:1.62587404;stroke-miterlimit:4;stroke-dasharray:none;stroke-opacity:1" />
    <path
       transform="matrix(0.78934146,-0.0357356,0.0357356,0.78934146,124.0072,110.58854)"
       sodipodi:type="star"
       style="fill:#c6f8ff;fill-opacity:0.08399999;stroke:none;stroke-width:1.00909305;stroke-miterlimit:4;stroke-dasharray:none;stroke-opacity:1"
       id="path4654"
       sodipodi:sides="8"
       sodipodi:cx="134.85522"
       sodipodi:cy="187.73579"
       sodipodi:r1="34.372177"
       sodipodi:r2="18.302233"
       sodipodi:arg1="-1.117074"
       sodipodi:arg2="-0.69776653"
       inkscape:flatsided="false"
       inkscape:rounded="0"
       inkscape:randomized="0"
       d="m 149.92104,156.84133 -1.0412,19.13514 18.47421,0.56678 -14.26682,12.79435 12.66246,13.46401 -19.13514,-1.0412 -0.56678,18.47421 -12.79435,-14.26682 -13.46401,12.66246 1.0412,-19.13514 -18.47421,-0.56678 14.26682,-12.79435 -12.66246,-13.46401 19.13514,1.0412 0.56678,-18.47421 12.79435,14.26682 z"
       inkscape:transform-center-x="5.9889094"
       inkscape:transform-center-y="-0.67796157" />
    <path
       inkscape:transform-center-y="-0.32787101"
       inkscape:transform-center-x="2.896312"
       d="m 149.92104,156.84133 -1.0412,19.13514 18.47421,0.56678 -14.26682,12.79435 12.66246,13.46401 -19.13514,-1.0412 -0.56678,18.47421 -12.79435,-14.26682 -13.46401,12.66246 1.0412,-19.13514 -18.47421,-0.56678 14.26682,-12.79435 -12.66246,-13.46401 19.13514,1.0412 0.56678,-18.47421 12.79435,14.26682 z"
       inkscape:randomized="0"
       inkscape:rounded="0"
       inkscape:flatsided="false"
       sodipodi:arg2="-0.69776653"
       sodipodi:arg1="-1.117074"
       sodipodi:r2="18.302233"
       sodipodi:r1="34.372177"
       sodipodi:cy="187.73579"
       sodipodi:cx="134.85522"
       sodipodi:sides="8"
       id="path4656"
       style="fill:#c6f8ff;fill-opacity:0.08399999;stroke:none;stroke-width:1.00909305;stroke-miterlimit:4;stroke-dasharray:none;stroke-opacity:1"
       sodipodi:type="star"
       transform="matrix(0.38173535,-0.01728218,0.01728218,0.38173535,-40.074993,140.99944)" />
    <path
       transform="matrix(0.55304807,-0.02503797,0.02503797,0.55304807,162.92646,59.244314)"
       sodipodi:type="star"
       style="fill:#c6f8ff;fill-opacity:0.08399999;stroke:none;stroke-width:1.00909305;stroke-miterlimit:4;stroke-dasharray:none;stroke-opacity:1"
       id="path4668"
       sodipodi:sides="8"
       sodipodi:cx="134.85522"
       sodipodi:cy="187.73579"
       sodipodi:r1="34.372177"
       sodipodi:r2="18.302233"
       sodipodi:arg1="-1.117074"
       sodipodi:arg2="-0.69776653"
       inkscape:flatsided="false"
       inkscape:rounded="0"
       inkscape:randomized="0"
       d="m 149.92104,156.84133 -1.0412,19.13514 18.47421,0.56678 -14.26682,12.79435 12.66246,13.46401 -19.13514,-1.0412 -0.56678,18.47421 -12.79435,-14.26682 -13.46401,12.66246 1.0412,-19.13514 -18.47421,-0.56678 14.26682,-12.79435 -12.66246,-13.46401 19.13514,1.0412 0.56678,-18.47421 12.79435,14.26682 z"
       inkscape:transform-center-x="4.1960968"
       inkscape:transform-center-y="-0.47501083" />
    <path
       inkscape:transform-center-y="-0.31265037"
       inkscape:transform-center-x="2.7618591"
       d="m 149.92104,156.84133 -1.0412,19.13514 18.47421,0.56678 -14.26682,12.79435 12.66246,13.46401 -19.13514,-1.0412 -0.56678,18.47421 -12.79435,-14.26682 -13.46401,12.66246 1.0412,-19.13514 -18.47421,-0.56678 14.26682,-12.79435 -12.66246,-13.46401 19.13514,1.0412 0.56678,-18.47421 12.79435,14.26682 z"
       inkscape:randomized="0"
       inkscape:rounded="0"
       inkscape:flatsided="false"
       sodipodi:arg2="-0.69776653"
       sodipodi:arg1="-1.117074"
       sodipodi:r2="18.302233"
       sodipodi:r1="34.372177"
       sodipodi:cy="187.73579"
       sodipodi:cx="134.85522"
       sodipodi:sides="8"
       id="path4674"
       style="fill:#c6f8ff;fill-opacity:0.08399999;stroke:none;stroke-width:1.00909305;stroke-miterlimit:4;stroke-dasharray:none;stroke-opacity:1"
       sodipodi:type="star"
       transform="matrix(0.36401334,-0.01647985,0.01647985,0.36401334,153.84961,63.897486)" />
    <g
       id="g4704"
       transform="translate(-71.815476,21.544643)">
      <path
         transform="matrix(0.72436078,-0.03279375,0.03279375,0.72436078,-7.1866221,109.2971)"
         sodipodi:type="star"
         style="fill:#c6f8ff;fill-opacity:0.08399999;stroke:none;stroke-width:1.00909305;stroke-miterlimit:4;stroke-dasharray:none;stroke-opacity:1"
         id="path4658"
         sodipodi:sides="8"
         sodipodi:cx="134.85522"
         sodipodi:cy="187.73579"
         sodipodi:r1="34.372177"
         sodipodi:r2="18.302233"
         sodipodi:arg1="-1.117074"
         sodipodi:arg2="-0.69776653"
         inkscape:flatsided="false"
         inkscape:rounded="0"
         inkscape:randomized="0"
         d="m 149.92104,156.84133 -1.0412,19.13514 18.47421,0.56678 -14.26682,12.79435 12.66246,13.46401 -19.13514,-1.0412 -0.56678,18.47421 -12.79435,-14.26682 -13.46401,12.66246 1.0412,-19.13514 -18.47421,-0.56678 14.26682,-12.79435 -12.66246,-13.46401 19.13514,1.0412 0.56678,-18.47421 12.79435,14.26682 z"
         inkscape:transform-center-x="5.4958923"
         inkscape:transform-center-y="-0.62214971" />
      <path
         inkscape:transform-center-y="-0.32787124"
         inkscape:transform-center-x="2.8963124"
         d="m 149.92104,156.84133 -1.0412,19.13514 18.47421,0.56678 -14.26682,12.79435 12.66246,13.46401 -19.13514,-1.0412 -0.56678,18.47421 -12.79435,-14.26682 -13.46401,12.66246 1.0412,-19.13514 -18.47421,-0.56678 14.26682,-12.79435 -12.66246,-13.46401 19.13514,1.0412 0.56678,-18.47421 12.79435,14.26682 z"
         inkscape:randomized="0"
         inkscape:rounded="0"
         inkscape:flatsided="false"
         sodipodi:arg2="-0.69776653"
         sodipodi:arg1="-1.117074"
         sodipodi:r2="18.302233"
         sodipodi:r1="34.372177"
         sodipodi:cy="187.73579"
         sodipodi:cx="134.85522"
         sodipodi:sides="8"
         id="path4676"
         style="fill:#c6f8ff;fill-opacity:0.08399999;stroke:none;stroke-width:1.00909305;stroke-miterlimit:4;stroke-dasharray:none;stroke-opacity:1"
         sodipodi:type="star"
         transform="matrix(0.38173535,-0.01728218,0.01728218,0.38173535,41.782154,170.77889)" />
    </g>
    <path
       transform="matrix(0.25768132,-0.01166592,0.01166592,0.25768132,5.0348504,91.922516)"
       sodipodi:type="star"
       style="fill:#c6f8ff;fill-opacity:0.08399999;stroke:none;stroke-width:1.00909305;stroke-miterlimit:4;stroke-dasharray:none;stroke-opacity:1"
       id="path4686"
       sodipodi:sides="8"
       sodipodi:cx="134.85522"
       sodipodi:cy="187.73579"
       sodipodi:r1="34.372177"
       sodipodi:r2="18.302233"
       sodipodi:arg1="-1.117074"
       sodipodi:arg2="-0.69776653"
       inkscape:flatsided="false"
       inkscape:rounded="0"
       inkscape:randomized="0"
       d="m 149.92104,156.84133 -1.0412,19.13514 18.47421,0.56678 -14.26682,12.79435 12.66246,13.46401 -19.13514,-1.0412 -0.56678,18.47421 -12.79435,-14.26682 -13.46401,12.66246 1.0412,-19.13514 -18.47421,-0.56678 14.26682,-12.79435 -12.66246,-13.46401 19.13514,1.0412 0.56678,-18.47421 12.79435,14.26682 z"
       inkscape:transform-center-x="1.9550835"
       inkscape:transform-center-y="-0.22132146" />
    <path
       inkscape:transform-center-y="-0.22132146"
       inkscape:transform-center-x="1.9550835"
       d="m 149.92104,156.84133 -1.0412,19.13514 18.47421,0.56678 -14.26682,12.79435 12.66246,13.46401 -19.13514,-1.0412 -0.56678,18.47421 -12.79435,-14.26682 -13.46401,12.66246 1.0412,-19.13514 -18.47421,-0.56678 14.26682,-12.79435 -12.66246,-13.46401 19.13514,1.0412 0.56678,-18.47421 12.79435,14.26682 z"
       inkscape:randomized="0"
       inkscape:rounded="0"
       inkscape:flatsided="false"
       sodipodi:arg2="-0.69776653"
       sodipodi:arg1="-1.117074"
       sodipodi:r2="18.302233"
       sodipodi:r1="34.372177"
       sodipodi:cy="187.73579"
       sodipodi:cx="134.85522"
       sodipodi:sides="8"
       id="path4694"
       style="fill:#c6f8ff;fill-opacity:0.08399999;stroke:none;stroke-width:1.00909305;stroke-miterlimit:4;stroke-dasharray:none;stroke-opacity:1"
       sodipodi:type="star"
       transform="matrix(0.25768132,-0.01166592,0.01166592,0.25768132,33.005089,233.28561)" />
    <path
       inkscape:transform-center-y="-0.22132146"
       inkscape:transform-center-x="1.9550835"
       d="m 149.92104,156.84133 -1.0412,19.13514 18.47421,0.56678 -14.26682,12.79435 12.66246,13.46401 -19.13514,-1.0412 -0.56678,18.47421 -12.79435,-14.26682 -13.46401,12.66246 1.0412,-19.13514 -18.47421,-0.56678 14.26682,-12.79435 -12.66246,-13.46401 19.13514,1.0412 0.56678,-18.47421 12.79435,14.26682 z"
       inkscape:randomized="0"
       inkscape:rounded="0"
       inkscape:flatsided="false"
       sodipodi:arg2="-0.69776653"
       sodipodi:arg1="-1.117074"
       sodipodi:r2="18.302233"
       sodipodi:r1="34.372177"
       sodipodi:cy="187.73579"
       sodipodi:cx="134.85522"
       sodipodi:sides="8"
       id="path4698"
       style="fill:#c6f8ff;fill-opacity:0.08399999;stroke:none;stroke-width:1.00909305;stroke-miterlimit:4;stroke-dasharray:none;stroke-opacity:1"
       sodipodi:type="star"
       transform="matrix(0.25768132,-0.01166592,0.01166592,0.25768132,151.68961,222.70227)" />
    <rect
       style="fill:#c6f8ff;fill-opacity:0.072;stroke:none;stroke-width:2.89093995;stroke-miterlimit:4;stroke-dasharray:none;stroke-opacity:1"
       id="rect4736"
       width="133.87712"
       height="80.508926"
       x="96.761909"
       y="193.05655" />
    <path
       inkscape:transform-center-y="-0.32787124"
       inkscape:transform-center-x="2.8963124"
       d="m 149.92104,156.84133 -1.0412,19.13514 18.47421,0.56678 -14.26682,12.79435 12.66246,13.46401 -19.13514,-1.0412 -0.56678,18.47421 -12.79435,-14.26682 -13.46401,12.66246 1.0412,-19.13514 -18.47421,-0.56678 14.26682,-12.79435 -12.66246,-13.46401 19.13514,1.0412 0.56678,-18.47421 12.79435,14.26682 z"
       inkscape:randomized="0"
       inkscape:rounded="0"
       inkscape:flatsided="false"
       sodipodi:arg2="-0.69776653"
       sodipodi:arg1="-1.117074"
       sodipodi:r2="18.302233"
       sodipodi:r1="34.372177"
       sodipodi:cy="187.73579"
       sodipodi:cx="134.85522"
       sodipodi:sides="8"
       id="path4666"
       style="fill:#c6f8ff;fill-opacity:0.08399999;stroke:none;stroke-width:1.00909305;stroke-miterlimit:4;stroke-dasharray:none;stroke-opacity:1"
       sodipodi:type="star"
       transform="matrix(0.38173535,-0.01728218,0.01728218,0.38173535,153.5979,121.4977)" />
    <path
       transform="matrix(0.38173535,-0.01728218,0.01728218,0.38173535,101.96636,176.15306)"
       sodipodi:type="star"
       style="fill:#c6f8ff;fill-opacity:0.08399999;stroke:none;stroke-width:1.00909305;stroke-miterlimit:4;stroke-dasharray:none;stroke-opacity:1"
       id="path4706"
       sodipodi:sides="8"
       sodipodi:cx="134.85522"
       sodipodi:cy="187.73579"
       sodipodi:r1="34.372177"
       sodipodi:r2="18.302233"
       sodipodi:arg1="-1.117074"
       sodipodi:arg2="-0.69776653"
       inkscape:flatsided="false"
       inkscape:rounded="0"
       inkscape:randomized="0"
       d="m 149.92104,156.84133 -1.0412,19.13514 18.47421,0.56678 -14.26682,12.79435 12.66246,13.46401 -19.13514,-1.0412 -0.56678,18.47421 -12.79435,-14.26682 -13.46401,12.66246 1.0412,-19.13514 -18.47421,-0.56678 14.26682,-12.79435 -12.66246,-13.46401 19.13514,1.0412 0.56678,-18.47421 12.79435,14.26682 z"
       inkscape:transform-center-x="2.8963124"
       inkscape:transform-center-y="-0.32787124" />
    <path
       inkscape:transform-center-y="-0.22132146"
       inkscape:transform-center-x="1.9550835"
       d="m 149.92104,156.84133 -1.0412,19.13514 18.47421,0.56678 -14.26682,12.79435 12.66246,13.46401 -19.13514,-1.0412 -0.56678,18.47421 -12.79435,-14.26682 -13.46401,12.66246 1.0412,-19.13514 -18.47421,-0.56678 14.26682,-12.79435 -12.66246,-13.46401 19.13514,1.0412 0.56678,-18.47421 12.79435,14.26682 z"
       inkscape:randomized="0"
       inkscape:rounded="0"
       inkscape:flatsided="false"
       sodipodi:arg2="-0.69776653"
       sodipodi:arg1="-1.117074"
       sodipodi:r2="18.302233"
       sodipodi:r1="34.372177"
       sodipodi:cy="187.73579"
       sodipodi:cx="134.85522"
       sodipodi:sides="8"
       id="path4722"
       style="fill:#c6f8ff;fill-opacity:0.08399999;stroke:none;stroke-width:1.00909305;stroke-miterlimit:4;stroke-dasharray:none;stroke-opacity:1"
       sodipodi:type="star"
       transform="matrix(0.25768132,-0.01166592,0.01166592,0.25768132,135.43663,93.81239)" />
    <path
       transform="matrix(0.25768132,-0.01166592,0.01166592,0.25768132,9.948541,175.83323)"
       sodipodi:type="star"
       style="fill:#c6f8ff;fill-opacity:0.08399999;stroke:none;stroke-width:1.00909305;stroke-miterlimit:4;stroke-dasharray:none;stroke-opacity:1"
       id="path4724"
       sodipodi:sides="8"
       sodipodi:cx="134.85522"
       sodipodi:cy="187.73579"
       sodipodi:r1="34.372177"
       sodipodi:r2="18.302233"
       sodipodi:arg1="-1.117074"
       sodipodi:arg2="-0.69776653"
       inkscape:flatsided="false"
       inkscape:rounded="0"
       inkscape:randomized="0"
       d="m 149.92104,156.84133 -1.0412,19.13514 18.47421,0.56678 -14.26682,12.79435 12.66246,13.46401 -19.13514,-1.0412 -0.56678,18.47421 -12.79435,-14.26682 -13.46401,12.66246 1.0412,-19.13514 -18.47421,-0.56678 14.26682,-12.79435 -12.66246,-13.46401 19.13514,1.0412 0.56678,-18.47421 12.79435,14.26682 z"
       inkscape:transform-center-x="1.9550835"
       inkscape:transform-center-y="-0.22132146" />
    <path
       inkscape:transform-center-y="-0.22132146"
       inkscape:transform-center-x="1.9550835"
       d="m 149.92104,156.84133 -1.0412,19.13514 18.47421,0.56678 -14.26682,12.79435 12.66246,13.46401 -19.13514,-1.0412 -0.56678,18.47421 -12.79435,-14.26682 -13.46401,12.66246 1.0412,-19.13514 -18.47421,-0.56678 14.26682,-12.79435 -12.66246,-13.46401 19.13514,1.0412 0.56678,-18.47421 12.79435,14.26682 z"
       inkscape:randomized="0"
       inkscape:rounded="0"
       inkscape:flatsided="false"
       sodipodi:arg2="-0.69776653"
       sodipodi:arg1="-1.117074"
       sodipodi:r2="18.302233"
       sodipodi:r1="34.372177"
       sodipodi:cy="187.73579"
       sodipodi:cx="134.85522"
       sodipodi:sides="8"
       id="path4726"
       style="fill:#c6f8ff;fill-opacity:0.08399999;stroke:none;stroke-width:1.00909305;stroke-miterlimit:4;stroke-dasharray:none;stroke-opacity:1"
       sodipodi:type="star"
       transform="matrix(0.25768132,-0.01166592,0.01166592,0.25768132,62.487232,192.08621)" />
    <rect
       style="fill:#c6f8ff;fill-opacity:0.072;stroke:none;stroke-width:1.21070123;stroke-miterlimit:4;stroke-dasharray:none;stroke-opacity:1"
       id="rect4730"
       width="53.998714"
       height="35.007641"
       x="23.056551"
       y="124.40903" />
    <rect
       y="174.75186"
       x="75.595238"
       height="73.111214"
       width="115.39715"
       id="rect4732"
       style="fill:#c6f8ff;fill-opacity:0.072;stroke:none;stroke-width:2.55772233;stroke-miterlimit:4;stroke-dasharray:none;stroke-opacity:1" />
    <rect
       style="fill:#c6f8ff;fill-opacity:0.072;stroke:none;stroke-width:2.05149555;stroke-miterlimit:4;stroke-dasharray:none;stroke-opacity:1"
       id="rect4738"
       width="91.092255"
       height="59.58432"
       x="58.964294"
       y="166.35616" />
    <path
       inkscape:transform-center-y="-0.50545446"
       inkscape:transform-center-x="4.4650232"
       d="m 149.92104,156.84133 -1.0412,19.13514 18.47421,0.56678 -14.26682,12.79435 12.66246,13.46401 -19.13514,-1.0412 -0.56678,18.47421 -12.79435,-14.26682 -13.46401,12.66246 1.0412,-19.13514 -18.47421,-0.56678 14.26682,-12.79435 -12.66246,-13.46401 19.13514,1.0412 0.56678,-18.47421 12.79435,14.26682 z"
       inkscape:randomized="0"
       inkscape:rounded="0"
       inkscape:flatsided="false"
       sodipodi:arg2="-0.69776653"
       sodipodi:arg1="-1.117074"
       sodipodi:r2="18.302233"
       sodipodi:r1="34.372177"
       sodipodi:cy="187.73579"
       sodipodi:cx="134.85522"
       sodipodi:sides="8"
       id="path4650"
       style="fill:#c6f8ff;fill-opacity:0.08399999;stroke:none;stroke-width:1.00909305;stroke-miterlimit:4;stroke-dasharray:none;stroke-opacity:1"
       sodipodi:type="star"
       transform="matrix(0.58849207,-0.02664261,0.02664261,0.58849207,21.098372,38.239942)" />
  </g>
</svg>
